<svg viewBox="0 0 21 24" xmlns="http://www.w3.org/2000/svg" fill-rule="evenodd" clip-rule="evenodd" stroke-linejoin="round" stroke-miterlimit="1.414"><g fill-rule="nonzero"><path d="M6.608 14.195c-.149.421-.137.879-.091 1.318.01.151-.19.545-.022.576.279-.266.67-.475 1.064-.356.3.064.721.312.538.678-.129.303-.355.642-.187.978.184.353.552.562.897.732.365.023.255-.517.286-.759.017-.504-.043-1.061.238-1.507.167-.319.533-.226.668.067.305.371.529.821.922 1.109.352.153 1.113-.336 1.195-.688a.77.77 0 0 0-.34-.871c-.233-.155-.774-.223-.857-.511.158-.252.55-.116.798-.087a3.84 3.84 0 0 1 1.032.401c-.009-.227-.357-.448-.369-.723.053-.09.263.036.074-.064-.99-.541-1.72-1.444-2.696-2.002-.154.126-.355.398-.594.509-.811.479-1.709.791-2.556 1.2zm6.018-.139c.014-.047.021-.098.044-.141.044-.082.101-.157.167-.225s.141-.129.219-.185c.078-.055.158-.106.24-.153.255-.085.442-.153.573-.208a.89.89 0 0 0 .24-.126c.017-.016.023-.029.02-.041-.003-.011-.015-.02-.034-.028a.686.686 0 0 0-.187-.03c-.167-.01-.397-.006-.586-.016a1.355 1.355 0 0 1-.239-.03.243.243 0 0 1-.071-.028c-.017-.012-.026-.025-.026-.041a.782.782 0 0 1 .089-.279c.045-.094.098-.188.136-.28a.782.782 0 0 0 .045-.137.436.436 0 0 0 .006-.135.326.326 0 0 0-.049-.131.504.504 0 0 0-.118-.125 1.944 1.944 0 0 1-.286-.14 2.422 2.422 0 0 1-.256-.177 2.675 2.675 0 0 1-.229-.21 3.589 3.589 0 0 1-.21-.233 5.814 5.814 0 0 1-.366-.513c-.036-.057-.068-.113-.102-.17-.646.535-1.7.608-1.745 1.85.927.457 1.536 1.449 2.387 1.783.116.046.225.099.338.149zm-4.863-4.77c.693.565 1.373 1.323 2.019 2.294-.12.379-.272.6-.519.847-.856.376-1.782.745-2.661 1.138l-.002-.031a.786.786 0 0 0-.203-.412 1.494 1.494 0 0 0-.222-.201 2.896 2.896 0 0 0-.223-.153c-.07-.045-.133-.084-.177-.119-.045-.035-.073-.067-.075-.097-.001-.014.005-.028.018-.042a.213.213 0 0 1 .063-.042 1.45 1.45 0 0 1 .29-.085.247.247 0 0 0 .12-.125.245.245 0 0 0 .004-.152.845.845 0 0 0-.068-.176c-.03-.06-.066-.122-.099-.185a1.426 1.426 0 0 1-.082-.191.45.45 0 0 1-.028-.185.304.304 0 0 1 .072-.175.62.62 0 0 1 .218-.155c.13-.06.253-.133.368-.22.114-.085.22-.18.318-.281.097-.102.186-.209.267-.316.079-.103.154-.21.224-.318.134-.208.239-.399.322-.536.021-.035.038-.055.056-.082z" fill="#fff"/><path d="M10.288 14.412h.23c.678.481.936.289 1.117.306.203.019-.166.009-.795-.388.381-.082.671.073.874.122a5.123 5.123 0 0 1-1.242-1.302c.142.026.276.082.414.122-.272-.088-.296-.411-.322-.447.525-.126 1.106-.163 1.61-.244-.377-.28-.972-.006-1.39-.141.411-.21.713-.452.966-.773-.666.107-.883.863-1.518.57.825.738-2.293.722-1.34.002-.201-.406-1.549-.757-2.1-1.001.78.406 1.002.857 1.104 1.017-.519-.041-1.01-.077-1.564-.122.597.077 1.138.361 1.61.57-.203.098-.183.242-.276.366.263.053.353-.085.506-.122-.504.345-.83.692-1.38.936.564-.035 1.047-.271 1.472-.407-.516.568-1.004 1.033-1.38 1.587a7.114 7.114 0 0 0 1.334-.855c-.436.705-.481 1.025-.451 1.403.255-.739.543-.87 1.003-1.037-.057.379-.099.598-.138.977.044-.572.345-.794.644-1.058-.063.533.036.867.276 1.221 0-.434 0-.868.023-1.465.188.619.741 1.193 1.113 1.784.127-.632-.278-.823-.4-1.418" fill="#5e017b"/><path d="M9.594 12.922c0 .29-.038.658-.046.903.036.106.142.07.186.035.082-.256.041-.754.074-1.021.092 1.084.375.745.206-.097.535 1.072.362-.125.362-.125s.538.011.669.078c-1.114-.502-.203-.207-.194-.494-.898.412-.89-.681-1-1.227-.305.694-.69 1.076-1.301.943-.065.271-.223.253-.426.312.252.008.39.075.578.031-.144.326-.328.168-.573.359.15.581.419-.001.554.061-.66.697-.382.917.292.241-.071.249-.234.412-.307.648.072.142.181.131.284.052.121-.095.328-.824.307-.681-.126.857.007 1.227.335-.018z" fill="#ffd42a"/><path d="M6.608 14.195c-1.578.741-3.227 1.756-3.605 3.562-.294 1.473 1.153 2.499 2.442 3.087 1.73.79 1.203.734 2.324 1.294.753.377 1.881 1.704 2.856 1.373.962-.327 1.511-1.415 2.373-1.562 3.586-.609 4.262-5.044-.451-7.412-.071-.023-.117-.026-.143-.014-.025.012-.032.039-.024.076a.528.528 0 0 0 .058.137c.029.052.067.108.105.165.077.114.161.226.203.298.021.036.03.062.024.073-.005.01-.027.005-.072-.021a3.568 3.568 0 0 0-.877-.352 2.73 2.73 0 0 0-.393-.072 1.279 1.279 0 0 0-.304 0c-.082.012-.144.034-.177.07a.112.112 0 0 0-.028.065.152.152 0 0 0 .02.08.726.726 0 0 0 .199.22c.106.085.254.184.449.295a.35.35 0 0 1 .119.127.78.78 0 0 1 .078.203 1.237 1.237 0 0 1 .01.518 1.024 1.024 0 0 1-.08.257.778.778 0 0 1-.149.216.636.636 0 0 1-.358.185.834.834 0 0 1-.161.01.323.323 0 0 1-.169-.071 1.147 1.147 0 0 1-.19-.175 6.264 6.264 0 0 1-.4-.515c-.133-.185-.261-.367-.376-.495a.897.897 0 0 0-.161-.147c-.05-.032-.095-.045-.133-.032a.567.567 0 0 0-.286.217.88.88 0 0 0-.093.167 1.378 1.378 0 0 0-.064.194c-.035.137-.053.29-.064.446a6.84 6.84 0 0 0-.017.473c-.001.156 0 .305-.004.439a1.915 1.915 0 0 1-.034.346.474.474 0 0 1-.04.119.192.192 0 0 1-.062.074.146.146 0 0 1-.089.021.328.328 0 0 1-.123-.041 3.692 3.692 0 0 1-.322-.187 2.121 2.121 0 0 1-.239-.179 1.33 1.33 0 0 1-.167-.173.83.83 0 0 1-.103-.165.639.639 0 0 1-.058-.31.9.9 0 0 1 .072-.284c.037-.091.082-.178.121-.261.039-.084.072-.163.086-.24a.373.373 0 0 0 .006-.115.266.266 0 0 0-.032-.106.375.375 0 0 0-.08-.105.767.767 0 0 0-.141-.101 1.486 1.486 0 0 0-.222-.102 1.039 1.039 0 0 0-.388-.063.952.952 0 0 0-.165.022 1.058 1.058 0 0 0-.278.113c-.08.047-.147.097-.203.143-.056.046-.1.087-.133.109a.095.095 0 0 1-.04.018c-.01.001-.018-.004-.022-.016a.442.442 0 0 1 .008-.169 9.36 9.36 0 0 1 .076-.409 4.604 4.604 0 0 1-.03-.553c.002-.169.016-.324.04-.463.019-.112.049-.208.081-.302zm8.282-5.71c-1.136-.023-2.208.613-3.059 1.616a1.45 1.45 0 0 1-.185.174c.035.056.067.112.102.169.114.177.234.35.367.513a3.306 3.306 0 0 0 .439.443 2.168 2.168 0 0 0 .541.318.49.49 0 0 1 .119.124.327.327 0 0 1 .048.131.383.383 0 0 1-.006.135.776.776 0 0 1-.044.137c-.039.092-.092.186-.137.28a.802.802 0 0 0-.089.279c0 .016.01.029.026.041.017.011.041.02.071.028.06.015.145.025.239.03.189.01.42.006.586.016a.686.686 0 0 1 .187.03c.019.008.032.017.034.028.003.012-.003.025-.02.041a.918.918 0 0 1-.239.127 9.385 9.385 0 0 1-.574.207 2.847 2.847 0 0 0-.239.153 1.632 1.632 0 0 0-.22.185 1.02 1.02 0 0 0-.167.225c-.023.043-.029.094-.044.141 1.596.705 2.778 1.782 3.516 2.985 1.151-.069 2.756-1.561 3.101-2.804.254-.914-.144-2.017-.41-2.837-.444-1.371-1.443-2.315-2.79-2.663a3.088 3.088 0 0 0-1.153-.252zM4.716 8.014a3.892 3.892 0 0 0-1.61.294C2.015 8.758.998 9.383.661 10.957c-1.158 2.169-.718 4.175 2.29 5.764.153-1.379 1.786-2.323 3.651-3.156-.001-.009 0-.02-.002-.03a.697.697 0 0 0-.042-.155.912.912 0 0 0-.161-.258 1.557 1.557 0 0 0-.222-.201 3.603 3.603 0 0 0-.223-.153c-.07-.045-.132-.083-.177-.118-.045-.036-.073-.068-.075-.097 0-.015.005-.028.019-.042a.206.206 0 0 1 .062-.043c.059-.027.153-.055.29-.084a.257.257 0 0 0 .121-.125.256.256 0 0 0 .004-.153.905.905 0 0 0-.069-.175c-.03-.061-.066-.122-.098-.185a1.315 1.315 0 0 1-.083-.191.471.471 0 0 1-.028-.186.31.31 0 0 1 .072-.175.62.62 0 0 1 .218-.155c.13-.059.253-.133.368-.219.114-.085.221-.181.318-.282.097-.101.186-.208.268-.316.078-.103.153-.209.223-.318.134-.207.239-.399.322-.535.022-.036.038-.055.056-.083-1.014-.828-2.055-1.24-3.047-1.271v-.001zm5.196 2.917c.522-.496.821-.515 1.466-.865.607-.33.734-1.034 1.755-1.64 1.329-1.194.478-5.377-.911-6.668-2.519-2.343-7.11-2.472-9.011.39-.403.608-.701 2.588-.477 3.653.175.833.923 1.305.868 1.909 1.82-.642 4.58.494 6.31 3.221zm9.336-.098c4.788-3.811-2.124-9.529-6.278-9.14 1.109 1.981 1.757 4.283 1.204 6.31 2.212.04 4.186 1.054 5.074 2.83z" fill="#a40496"/></g></svg>